<?xml version="1.0" encoding="utf-8"?>
<!-- Generator: Adobe Illustrator 22.1.0, SVG Export Plug-In . SVG Version: 6.00 Build 0)  -->
<svg xmlns="http://www.w3.org/2000/svg" width="200" height="200" viewBox="0 0 200 200" preserveAspectRatio="xMidYMid meet" style="width: 100%; height: 100%; transform: translate3d(0px, 0px, 0px); transform-origin: 0px 0px 0px;"><defs><clipPath id="animationMask_tcPaGFNI6E"><rect width="200" height="200" x="0" y="0"></rect></clipPath></defs><g clip-path="url(#animationMask_tcPaGFNI6E)" style="user-select: none;"><g class="bm_icon_hoverable" opacity="1" style="user-select: none;"><g class="bm_shadow_hoverable" style="user-select: none;"><g transform="matrix(1,0,0,1,100,100)" style="user-select: none;"><path fill="rgb(1,1,1)" fill-opacity="0.08" style="display: block;" d=" M2.8,-25.8 C-6.3,-26 -22.700000000000003,-30.6 -31.6,-24.6 C-48,-13.600000000000001 -48.5,24.599999999999998 -23.1,51.8 C-17,58.4 -7.2,53.5 2.2,53.6 C2.2,53.6 2.8,-25.8 2.8,-25.8z M2,53.6 C11.4,53.7 21.1,58.6 27.3,52.2 C53.1,25.300000000000004 53.099999999999994,-12.900000000000002 36.9,-24.1 C28.099999999999998,-30.200000000000003 11.7,-25.8 2.5,-25.7 C2.5,-25.7 2,53.6 2,53.6z M-16.7,-56.5 C-16.7,-56.5 -9.6,-55.8 -3.1,-46.3 C3.4,-36.8 1.1,-29.2 1.1,-29.2 C1.1,-29.2 -6.9,-32.9 -11.9,-40 C-17.1,-47.7 -16.7,-56.5 -16.7,-56.5 C-16.7,-56.5 -16.7,-56.5 -16.7,-56.5z M23.2,-51 C23.2,-51 17,-51.9 10.9,-45.3 C4.800000000000001,-38.699999999999996 6.4,-31.9 6.4,-31.9 C6.4,-31.9 13.700000000000001,-33.2 18.3,-38.2 C23.1,-43.5 23.2,-51 23.2,-51 C23.2,-51 23.2,-51 23.2,-51z"></path></g></g><g transform="matrix(1,0,0,1,100,100)" style="user-select: none;"><path fill="rgb(242,107,83)" fill-opacity="1" class="bm_fill bm_color_1" style="display: block;" d=" M-1.2,-27.8 C-10.299999999999999,-28 -26.700000000000003,-32.6 -35.6,-26.6 C-52,-15.600000000000001 -52.5,22.599999999999998 -27.1,49.8 C-21,56.4 -11.200000000000001,51.5 -1.8,51.6 C-1.8,51.6 -1.2,-27.8 -1.2,-27.8z M-2,51.6 C7.4,51.7 17.1,56.6 23.3,50.2 C49.1,23.300000000000004 49.099999999999994,-14.900000000000002 32.9,-26.1 C24.099999999999998,-32.2 7.699999999999999,-27.8 -1.5,-27.7 C-1.5,-27.7 -2,51.6 -2,51.6z"></path></g><g transform="matrix(1,0,0,1,100,100)" style="user-select: none;"><g stroke-linecap="butt" stroke-linejoin="miter" fill-opacity="0" stroke-miterlimit="4" stroke="rgb(96,50,86)" stroke-opacity="1" stroke-width="2" class="bm_stroke bm_color_4" style="display: block;"><path d=" M-1,-28.6 C-10.1,-28.8 -26.5,-33.4 -35.4,-27.4 C-39.199999999999996,-24.799999999999997 -42.2,-20.8 -44.2,-15.8 C-50.7,0.8000000000000007 -46.4,28.1 -26.9,49 C-20.799999999999997,55.6 -11,50.699999999999996 -1.6,50.8"></path></g></g><g transform="matrix(1,0,0,1,100,100)" style="user-select: none;"><g stroke-linecap="butt" stroke-linejoin="miter" fill-opacity="0" stroke-miterlimit="4" stroke="rgb(96,50,86)" stroke-opacity="1" stroke-width="2" class="bm_stroke bm_color_4" style="display: block;"><path d=" M-1.8,50.8 C7.6000000000000005,50.9 17.3,55.8 23.5,49.4 C49.3,22.5 49.3,-15.7 33.1,-26.9 C24.3,-33 7.8999999999999995,-28.6 -1.3,-28.5"></path></g></g><g transform="matrix(1,0,0,1,100,100)" style="user-select: none;"><path fill="rgb(91,194,168)" fill-opacity="1" class="bm_fill bm_color_3" style="display: block;" d=" M-20.7,-58.5 C-20.7,-58.5 -13.6,-57.8 -7.1,-48.3 C-0.5999999999999996,-38.8 -2.9,-31.2 -2.9,-31.2 C-2.9,-31.2 -10.9,-34.9 -15.9,-42 C-21.1,-49.7 -20.7,-58.5 -20.7,-58.5 C-20.7,-58.5 -20.7,-58.5 -20.7,-58.5z"></path></g><g transform="matrix(1,0,0,1,100,100)" style="user-select: none;"><path fill="rgb(249,246,235)" fill-opacity="1" style="display: block;" d=" M-18.3,-53.4 C-17.900000000000002,-51.3 -17.3,-49.199999999999996 -16.2,-47.3 C-15.6,-46.199999999999996 -13.8,-47.199999999999996 -14.5,-48.3 C-15.5,-50 -15.999999999999998,-52 -16.4,-53.9 C-16.599999999999998,-55.199999999999996 -18.5,-54.699999999999996 -18.3,-53.4 C-18.3,-53.4 -18.3,-53.4 -18.3,-53.4 C-18.3,-53.4 -18.3,-53.4 -18.3,-53.4z"></path></g><g transform="matrix(1,0,0,1,100,100)" style="user-select: none;"><path fill="rgb(91,194,168)" fill-opacity="1" class="bm_fill bm_color_3" style="display: block;" d=" M19.2,-53 C19.2,-53 13,-53.9 6.9,-47.3 C0.8000000000000007,-40.699999999999996 2.4,-33.9 2.4,-33.9 C2.4,-33.9 9.700000000000001,-35.2 14.3,-40.2 C19.1,-45.5 19.2,-53 19.2,-53 C19.2,-53 19.2,-53 19.2,-53z"></path></g><g transform="matrix(1,0,0,1,100,100)" style="user-select: none;"><path fill="rgb(249,246,235)" fill-opacity="1" style="display: block;" d=" M-37.6,-4.8 C-36.300000000000004,-4.8 -36.300000000000004,-6.9 -37.6,-6.9 C-38.9,-6.800000000000001 -38.9,-4.8 -37.6,-4.8 C-37.6,-4.8 -37.6,-4.8 -37.6,-4.8 C-37.6,-4.8 -37.6,-4.8 -37.6,-4.8z M-36.2,-8.8 C-35.400000000000006,-14.600000000000001 -31.9,-20.6 -25.7,-21.6 C-24.4,-21.8 -25,-23.7 -26.2,-23.5 C-33,-22.4 -37.2,-15.700000000000001 -38.1,-9.3 C-38.2,-8.100000000000001 -36.300000000000004,-7.6000000000000005 -36.2,-8.8 C-36.2,-8.8 -36.2,-8.8 -36.2,-8.8 C-36.2,-8.8 -36.2,-8.8 -36.2,-8.8z"></path></g><g transform="matrix(1,0,0,1,100,100)" style="user-select: none;"><path fill="rgb(249,246,235)" fill-opacity="1" style="display: block;" d=" M22.05,38.425 C20.85,41.925 18.05,44.925000000000004 14.85,46.725 C13.75,47.325 14.75,49.025 15.85,48.425 C19.45,46.324999999999996 22.65,42.925 23.95,38.925 C24.349999999999998,37.724999999999994 22.45,37.224999999999994 22.05,38.425 C22.05,38.425 22.05,38.425 22.05,38.425 C22.05,38.425 22.05,38.425 22.05,38.425z"></path></g><rect width="200" height="200" fill="#ffffff" visibility="visible" transform="matrix(1,0,0,1,0,0)" opacity="0"></rect></g><g transform="matrix(1,0,0,1,4,195)" style="user-select: none;"><path fill="rgb(96,50,86)" fill-opacity="1" d=" M34.124,-5.841 C34.334,-5.6240000000000006 34.434,-5.318 34.424,-4.922 C34.424,-4.922 34.424,-4.731 34.424,-4.731 C34.424,-4.731 31.934,-4.731 31.934,-4.731 C32.071,-5.688 32.5,-6.167 33.223,-6.167 C33.614,-6.167 33.914,-6.058 34.124,-5.841z M35.321,-0.231 C35.885,-0.482 36.32,-0.8200000000000001 36.628,-1.245 C36.628,-1.245 35.5,-2.578 35.5,-2.578 C35.061,-2.0309999999999997 34.449999999999996,-1.758 33.669,-1.758 C33.195,-1.758 32.81,-1.8849999999999998 32.512,-2.139 C32.214,-2.393 32.022,-2.742 31.934,-3.186 C31.934,-3.186 36.841,-3.186 36.841,-3.186 C36.841,-3.186 36.841,-4.146 36.841,-4.146 C36.841,-5.381 36.519000000000005,-6.344 35.874,-7.035 C35.229,-7.726 34.35,-8.071 33.237,-8.071 C32.446000000000005,-8.071 31.763,-7.901000000000001 31.187,-7.562 C30.611,-7.223 30.172,-6.743 29.872,-6.123 C29.572,-5.503 29.421,-4.787 29.421,-3.977 C29.421,-3.977 29.421,-3.772 29.421,-3.772 C29.421,-2.61 29.797,-1.666 30.549,-0.941 C31.301,-0.21599999999999997 32.285,0.146 33.501,0.146 C34.15,0.146 34.757,0.01999999999999999 35.321,-0.231z"></path><g stroke-linecap="butt" stroke-linejoin="miter" fill-opacity="0" stroke-miterlimit="4" stroke="rgb(255,255,255)" stroke-opacity="1" stroke-width="0.01"><path d=" M34.124,-5.841 C34.334,-5.6240000000000006 34.434,-5.318 34.424,-4.922 C34.424,-4.922 34.424,-4.731 34.424,-4.731 C34.424,-4.731 31.934,-4.731 31.934,-4.731 C32.071,-5.688 32.5,-6.167 33.223,-6.167 C33.614,-6.167 33.914,-6.058 34.124,-5.841z"></path><path d=" M35.321,-0.231 C35.885,-0.482 36.32,-0.8200000000000001 36.628,-1.245 C36.628,-1.245 35.5,-2.578 35.5,-2.578 C35.061,-2.0309999999999997 34.449999999999996,-1.758 33.669,-1.758 C33.195,-1.758 32.81,-1.8849999999999998 32.512,-2.139 C32.214,-2.393 32.022,-2.742 31.934,-3.186 C31.934,-3.186 36.841,-3.186 36.841,-3.186 C36.841,-3.186 36.841,-4.146 36.841,-4.146 C36.841,-5.381 36.519000000000005,-6.344 35.874,-7.035 C35.229,-7.726 34.35,-8.071 33.237,-8.071 C32.446000000000005,-8.071 31.763,-7.901000000000001 31.187,-7.562 C30.611,-7.223 30.172,-6.743 29.872,-6.123 C29.572,-5.503 29.421,-4.787 29.421,-3.977 C29.421,-3.977 29.421,-3.772 29.421,-3.772 C29.421,-2.61 29.797,-1.666 30.549,-0.941 C31.301,-0.21599999999999997 32.285,0.146 33.501,0.146 C34.15,0.146 34.757,0.01999999999999999 35.321,-0.231z"></path></g><path fill="rgb(96,50,86)" fill-opacity="1" d=" M28.147,-11.25 C28.147,-11.25 25.671,-11.25 25.671,-11.25 C25.671,-11.25 25.671,0 25.671,0 C25.671,0 28.147,0 28.147,0 C28.147,0 28.147,-11.25 28.147,-11.25z"></path><g stroke-linecap="butt" stroke-linejoin="miter" fill-opacity="0" stroke-miterlimit="4" stroke="rgb(255,255,255)" stroke-opacity="1" stroke-width="0.01"><path d=" M28.147,-11.25 C28.147,-11.25 25.671,-11.25 25.671,-11.25 C25.671,-11.25 25.671,0 25.671,0 C25.671,0 28.147,0 28.147,0 C28.147,0 28.147,-11.25 28.147,-11.25z"></path></g><path fill="rgb(96,50,86)" fill-opacity="1" d=" M21.987,-3.794 C21.962999999999997,-2.4370000000000003 21.557000000000002,-1.758 20.771,-1.758 C20.195,-1.758 19.8,-1.9779999999999998 19.585,-2.417 C19.585,-2.417 19.585,-5.537 19.585,-5.537 C19.78,-5.957 20.171000000000003,-6.167 20.757,-6.167 C21.577,-6.167 21.987,-5.4639999999999995 21.987,-4.058 C21.987,-4.058 21.987,-3.794 21.987,-3.794z M24.456,-4.021 C24.456,-5.281 24.185000000000002,-6.271 23.643,-6.991 C23.101,-7.710999999999999 22.342,-8.071 21.365,-8.071 C20.593,-8.071 19.971,-7.7780000000000005 19.497,-7.192 C19.497,-7.192 19.424,-7.925 19.424,-7.925 C19.424,-7.925 17.117,-7.925 17.117,-7.925 C17.117,-7.925 17.117,3.047 17.117,3.047 C17.117,3.047 19.585,3.047 19.585,3.047 C19.585,3.047 19.585,-0.652 19.585,-0.652 C20.054000000000002,-0.12 20.651,0.146 21.379,0.146 C22.321,0.146 23.07,-0.22099999999999997 23.624,-0.956 C24.177999999999997,-1.6909999999999998 24.456,-2.674 24.456,-3.904 C24.456,-3.904 24.456,-4.021 24.456,-4.021z"></path><g stroke-linecap="butt" stroke-linejoin="miter" fill-opacity="0" stroke-miterlimit="4" stroke="rgb(255,255,255)" stroke-opacity="1" stroke-width="0.01"><path d=" M21.987,-3.794 C21.962999999999997,-2.4370000000000003 21.557000000000002,-1.758 20.771,-1.758 C20.195,-1.758 19.8,-1.9779999999999998 19.585,-2.417 C19.585,-2.417 19.585,-5.537 19.585,-5.537 C19.78,-5.957 20.171000000000003,-6.167 20.757,-6.167 C21.577,-6.167 21.987,-5.4639999999999995 21.987,-4.058 C21.987,-4.058 21.987,-3.794 21.987,-3.794z"></path><path d=" M24.456,-4.021 C24.456,-5.281 24.185000000000002,-6.271 23.643,-6.991 C23.101,-7.710999999999999 22.342,-8.071 21.365,-8.071 C20.593,-8.071 19.971,-7.7780000000000005 19.497,-7.192 C19.497,-7.192 19.424,-7.925 19.424,-7.925 C19.424,-7.925 17.117,-7.925 17.117,-7.925 C17.117,-7.925 17.117,3.047 17.117,3.047 C17.117,3.047 19.585,3.047 19.585,3.047 C19.585,3.047 19.585,-0.652 19.585,-0.652 C20.054000000000002,-0.12 20.651,0.146 21.379,0.146 C22.321,0.146 23.07,-0.22099999999999997 23.624,-0.956 C24.177999999999997,-1.6909999999999998 24.456,-2.674 24.456,-3.904 C24.456,-3.904 24.456,-4.021 24.456,-4.021z"></path></g><path fill="rgb(96,50,86)" fill-opacity="1" d=" M13.542,-3.794 C13.518,-2.4370000000000003 13.113,-1.758 12.327,-1.758 C11.751,-1.758 11.355,-1.9779999999999998 11.14,-2.417 C11.14,-2.417 11.14,-5.537 11.14,-5.537 C11.335,-5.957 11.725999999999999,-6.167 12.312,-6.167 C13.132,-6.167 13.542,-5.4639999999999995 13.542,-4.058 C13.542,-4.058 13.542,-3.794 13.542,-3.794z M16.011,-4.021 C16.011,-5.281 15.74,-6.271 15.198,-6.991 C14.656,-7.710999999999999 13.897,-8.071 12.92,-8.071 C12.148,-8.071 11.526,-7.7780000000000005 11.052,-7.192 C11.052,-7.192 10.979,-7.925 10.979,-7.925 C10.979,-7.925 8.672,-7.925 8.672,-7.925 C8.672,-7.925 8.672,3.047 8.672,3.047 C8.672,3.047 11.14,3.047 11.14,3.047 C11.14,3.047 11.14,-0.652 11.14,-0.652 C11.609,-0.12 12.207,0.146 12.935,0.146 C13.877,0.146 14.625,-0.22099999999999997 15.179,-0.956 C15.733,-1.6909999999999998 16.011,-2.674 16.011,-3.904 C16.011,-3.904 16.011,-4.021 16.011,-4.021z"></path><g stroke-linecap="butt" stroke-linejoin="miter" fill-opacity="0" stroke-miterlimit="4" stroke="rgb(255,255,255)" stroke-opacity="1" stroke-width="0.01"><path d=" M13.542,-3.794 C13.518,-2.4370000000000003 13.113,-1.758 12.327,-1.758 C11.751,-1.758 11.355,-1.9779999999999998 11.14,-2.417 C11.14,-2.417 11.14,-5.537 11.14,-5.537 C11.335,-5.957 11.725999999999999,-6.167 12.312,-6.167 C13.132,-6.167 13.542,-5.4639999999999995 13.542,-4.058 C13.542,-4.058 13.542,-3.794 13.542,-3.794z"></path><path d=" M16.011,-4.021 C16.011,-5.281 15.74,-6.271 15.198,-6.991 C14.656,-7.710999999999999 13.897,-8.071 12.92,-8.071 C12.148,-8.071 11.526,-7.7780000000000005 11.052,-7.192 C11.052,-7.192 10.979,-7.925 10.979,-7.925 C10.979,-7.925 8.672,-7.925 8.672,-7.925 C8.672,-7.925 8.672,3.047 8.672,3.047 C8.672,3.047 11.14,3.047 11.14,3.047 C11.14,3.047 11.14,-0.652 11.14,-0.652 C11.609,-0.12 12.207,0.146 12.935,0.146 C13.877,0.146 14.625,-0.22099999999999997 15.179,-0.956 C15.733,-1.6909999999999998 16.011,-2.674 16.011,-3.904 C16.011,-3.904 16.011,-4.021 16.011,-4.021z"></path></g><path fill="rgb(96,50,86)" fill-opacity="1" d=" M3.032,-1.82 C2.8810000000000002,-1.959 2.805,-2.141 2.805,-2.366 C2.805,-3.137 3.2350000000000003,-3.523 4.094,-3.523 C4.094,-3.523 4.812,-3.523 4.812,-3.523 C4.812,-3.523 4.812,-2.256 4.812,-2.256 C4.724,-2.09 4.579000000000001,-1.9409999999999998 4.376,-1.809 C4.173,-1.677 3.919,-1.611 3.611,-1.611 C3.3770000000000002,-1.611 3.183,-1.681 3.032,-1.82z M7.625,0 C7.625,0 7.625,-0.125 7.625,-0.125 C7.41,-0.511 7.298,-1.066 7.288,-1.794 C7.288,-1.794 7.288,-5.303 7.288,-5.303 C7.273000000000001,-6.162 6.973,-6.8389999999999995 6.387,-7.332 C5.800999999999999,-7.825 5.003,-8.071 3.992,-8.071 C2.981,-8.071 2.15,-7.832 1.498,-7.354 C0.846,-6.876 0.52,-6.255 0.52,-5.489 C0.52,-5.489 2.988,-5.489 2.988,-5.489 C2.988,-6.068 3.281,-6.357 3.867,-6.357 C4.497,-6.357 4.812,-5.992 4.812,-5.261 C4.812,-5.261 4.812,-4.841 4.812,-4.841 C4.812,-4.841 4.05,-4.841 4.05,-4.841 C2.8389999999999995,-4.841 1.917,-4.621 1.282,-4.182 C0.647,-3.7430000000000003 0.33,-3.093 0.33,-2.234 C0.33,-1.5499999999999998 0.59,-0.9830000000000001 1.113,-0.531 C1.635,-0.07900000000000001 2.271,0.146 3.018,0.146 C3.8329999999999997,0.146 4.468,-0.139 4.922,-0.71 C4.989999999999999,-0.39699999999999996 5.068,-0.161 5.156,0 C5.156,0 7.625,0 7.625,0z"></path><g stroke-linecap="butt" stroke-linejoin="miter" fill-opacity="0" stroke-miterlimit="4" stroke="rgb(255,255,255)" stroke-opacity="1" stroke-width="0.01"><path d=" M3.032,-1.82 C2.8810000000000002,-1.959 2.805,-2.141 2.805,-2.366 C2.805,-3.137 3.2350000000000003,-3.523 4.094,-3.523 C4.094,-3.523 4.812,-3.523 4.812,-3.523 C4.812,-3.523 4.812,-2.256 4.812,-2.256 C4.724,-2.09 4.579000000000001,-1.9409999999999998 4.376,-1.809 C4.173,-1.677 3.919,-1.611 3.611,-1.611 C3.3770000000000002,-1.611 3.183,-1.681 3.032,-1.82z"></path><path d=" M7.625,0 C7.625,0 7.625,-0.125 7.625,-0.125 C7.41,-0.511 7.298,-1.066 7.288,-1.794 C7.288,-1.794 7.288,-5.303 7.288,-5.303 C7.273000000000001,-6.162 6.973,-6.8389999999999995 6.387,-7.332 C5.800999999999999,-7.825 5.003,-8.071 3.992,-8.071 C2.981,-8.071 2.15,-7.832 1.498,-7.354 C0.846,-6.876 0.52,-6.255 0.52,-5.489 C0.52,-5.489 2.988,-5.489 2.988,-5.489 C2.988,-6.068 3.281,-6.357 3.867,-6.357 C4.497,-6.357 4.812,-5.992 4.812,-5.261 C4.812,-5.261 4.812,-4.841 4.812,-4.841 C4.812,-4.841 4.05,-4.841 4.05,-4.841 C2.8389999999999995,-4.841 1.917,-4.621 1.282,-4.182 C0.647,-3.7430000000000003 0.33,-3.093 0.33,-2.234 C0.33,-1.5499999999999998 0.59,-0.9830000000000001 1.113,-0.531 C1.635,-0.07900000000000001 2.271,0.146 3.018,0.146 C3.8329999999999997,0.146 4.468,-0.139 4.922,-0.71 C4.989999999999999,-0.39699999999999996 5.068,-0.161 5.156,0 C5.156,0 7.625,0 7.625,0z"></path></g></g></g></svg>